<?xml version="1.0" encoding="utf-8"?>
<!-- Generator: Adobe Illustrator 28.0.0, SVG Export Plug-In . SVG Version: 6.00 Build 0)  -->
<svg version="1.1" id="Layer_1" xmlns="http://www.w3.org/2000/svg" xmlns:xlink="http://www.w3.org/1999/xlink" x="0px" y="0px"
	 viewBox="0 0 60 60" style="enable-background:new 0 0 60 60;" xml:space="preserve">
<style type="text/css">
	.st0{fill:#231F20;}
</style>
<g>
	<path class="st0" d="M49.1,6.9L29.8,0.6h0L10.5,6.9C5.9,8.5,5.7,14,5.7,14v16.3C8.2,51,29.2,59.8,29.8,60c0,0,0,0,0,0
		c0.6-0.2,21.6-9,24.1-29.7V14C54,14,53.8,8.5,49.1,6.9z M27.2,52.3c0,0-15-7.1-16.2-22.8V15c0,0-0.6-3,2.6-4.2l13.6-4.2V52.3z
		 M48.6,15v14.5c-1.2,15.7-16.2,22.8-16.2,22.8V6.6L46,10.8C49.3,12,48.6,15,48.6,15z"/>
</g>
</svg>
