<?xml version="1.0" encoding="utf-8"?>
<!-- Generator: Adobe Illustrator 28.0.0, SVG Export Plug-In . SVG Version: 6.00 Build 0)  -->
<svg version="1.1" id="Layer_1" xmlns="http://www.w3.org/2000/svg" xmlns:xlink="http://www.w3.org/1999/xlink" x="0px" y="0px"
	 viewBox="0 0 500 300" style="enable-background:new 0 0 500 300;" xml:space="preserve">
<style type="text/css">
	.st0{fill:#0033FF;}
	.st1{font-family:'Cunia';}
	.st2{font-size:80px;}
</style>
<g>
	<path class="st0" d="M214.8,54.2c-9.5,3.3-9.9,14.4-9.9,14.4v33c5.3,42.5,49,60.3,49,60.3V41.3L214.8,54.2z M248.5,146.3
		c0,0-30.4-14.5-32.9-46.4V70.5c0,0-1.3-6.1,5.3-8.4l27.6-8.4V146.3z"/>
	<path class="st0" d="M253.8,41.3v120.6c0,0,43.7-17.8,49-60.3v-33c0,0-0.4-11.1-9.9-14.4L253.8,41.3z M259.2,53.6l27.6,8.4
		c6.7,2.4,5.3,8.4,5.3,8.4V100c-2.5,31.8-32.9,46.4-32.9,46.4V53.6z"/>
</g>
<text transform="matrix(1 0 0 1 52.4986 243.2345)" class="st1 st2">IPROTECT</text>
</svg>
